<?xml version="1.0" encoding="utf-8"?>
<!-- Generator: Adobe Illustrator 21.1.0, SVG Export Plug-In . SVG Version: 6.00 Build 0)  -->
<svg version="1.1" id="Capa_1" xmlns="http://www.w3.org/2000/svg" xmlns:xlink="http://www.w3.org/1999/xlink" x="0px" y="0px"
	 viewBox="0 0 378 392" style="enable-background:new 0 0 378 392;" xml:space="preserve">
<style type="text/css">
	.st0{fill:#E30613;}
	.st1{fill:none;}
	.st2{fill:#FFFFFF;}
	.st3{fill:#FFD213;}
	.st4{stroke:#000000;stroke-width:2.2322;stroke-miterlimit:10;}
</style>
<g>
	<g>
		<circle class="st4" cx="189" cy="196" r="168.9"/>
	</g>
	<g>
		<g>
			<g>
				
					<ellipse transform="matrix(5.120607e-02 -0.9987 0.9987 5.120607e-02 -93.5666 345.4641)" class="st2" cx="135" cy="222" rx="17.4" ry="17.4"/>
			</g>
			<g>
				
					<ellipse transform="matrix(5.120607e-02 -0.9987 0.9987 5.120607e-02 -99.6921 433.5422)" class="st2" cx="178.3" cy="269.2" rx="17.4" ry="17.4"/>
			</g>
			<g>
				<path class="st2" d="M138.4,281.7c-0.4,8-7.2,14.1-15.2,13.7c-8-0.4-14.1-7.2-13.7-15.2c0.4-8,7.2-14.1,15.2-13.7
					C132.7,266.9,138.8,273.7,138.4,281.7z"/>
			</g>
			<circle class="st2" cx="135" cy="222" r="17.4"/>
			<circle class="st2" cx="178.3" cy="269.2" r="17.4"/>
			<circle class="st2" cx="124" cy="280.8" r="14.5"/>
			<path class="st2" d="M189,27.1C95.7,27.1,20.1,102.7,20.1,196c0,93.3,75.6,168.9,168.9,168.9S357.9,289.3,357.9,196
				C357.9,102.7,282.3,27.1,189,27.1z M90.8,126.1c5,0,9,4,9,9c0,5-4,9-9,9c-5,0-9-4-9-9C81.8,130.1,85.8,126.1,90.8,126.1z
				 M174.3,347.2c0,0-131.3-8.1-137.1-151.2c0,0,54.4-3.7,115.2-58.6c0,0,54.4,56.1,93.1,170.4C245.5,307.8,238.9,347.2,174.3,347.2
				z M320.3,251c4.8,26.2-12.5,51.3-38.7,56c-8.5,1.6-16.9,0.7-24.6-2c-8.7-27.1-18.9-51.9-29.9-74.3c9.1-10.6,13.6-25.1,11-40
				c-4.6-26.5-29.8-44.2-56.3-39.6c-0.8,0.1-1.6,0.3-2.3,0.5c-24-33.1-46.3-55.7-59.2-67.7c3.6-18.9,18.4-34.6,38.5-38.3
				c22.3-4.1,43.9,8,52.7,27.9c6.4-5.8,14.5-10,23.6-11.7c26.2-4.8,51.3,12.5,56,38.7c1.9,10.5,0.2,20.8-4.1,29.7
				c23.6-1,45,15.5,49.4,39.4c4.3,23.6-9.4,46.4-31.4,54.1C312.7,230.7,318.3,240,320.3,251z"/>
		</g>
	</g>
</g>
</svg>
